<mxfile host="app.diagrams.net" agent="Mozilla/5.0 (Windows NT 10.0; Win64; x64; rv:139.0) Gecko/20100101 Firefox/139.0" version="27.1.1">
  <diagram name="Page-1" id="45bmdS6r5GTHjrhukE3N">
    <mxGraphModel dx="1678" dy="880" grid="1" gridSize="10" guides="1" tooltips="1" connect="1" arrows="1" fold="1" page="1" pageScale="1" pageWidth="1169" pageHeight="827" math="0" shadow="0">
      <root>
        <mxCell id="0" />
        <mxCell id="1" parent="0" />
        <mxCell id="9331QtTUVBZmF3FO_kLh-13" value="" style="edgeStyle=orthogonalEdgeStyle;rounded=0;orthogonalLoop=1;jettySize=auto;html=1;exitX=0.5;exitY=1;exitDx=0;exitDy=0;" edge="1" parent="1" source="9331QtTUVBZmF3FO_kLh-11" target="9331QtTUVBZmF3FO_kLh-12">
          <mxGeometry relative="1" as="geometry">
            <mxPoint x="580" y="93" as="sourcePoint" />
          </mxGeometry>
        </mxCell>
        <mxCell id="9331QtTUVBZmF3FO_kLh-16" value="" style="edgeStyle=orthogonalEdgeStyle;rounded=0;orthogonalLoop=1;jettySize=auto;html=1;exitX=0.5;exitY=1;exitDx=0;exitDy=0;" edge="1" parent="1" source="9331QtTUVBZmF3FO_kLh-11" target="9331QtTUVBZmF3FO_kLh-14">
          <mxGeometry relative="1" as="geometry" />
        </mxCell>
        <mxCell id="9331QtTUVBZmF3FO_kLh-18" value="" style="edgeStyle=orthogonalEdgeStyle;rounded=0;orthogonalLoop=1;jettySize=auto;html=1;" edge="1" parent="1" source="9331QtTUVBZmF3FO_kLh-11" target="9331QtTUVBZmF3FO_kLh-17">
          <mxGeometry relative="1" as="geometry" />
        </mxCell>
        <mxCell id="9331QtTUVBZmF3FO_kLh-11" value="&lt;span style=&quot;&quot;&gt;Type Racer&lt;/span&gt;" style="rounded=1;whiteSpace=wrap;html=1;fontSize=14;fontColor=light-dark(#000000,#000000);labelBackgroundColor=none;fillColor=light-dark(#FFFFFF,#FFFFFF);" vertex="1" parent="1">
          <mxGeometry x="520" y="13" width="120" height="60" as="geometry" />
        </mxCell>
        <mxCell id="9331QtTUVBZmF3FO_kLh-12" value="Game status" style="rounded=1;whiteSpace=wrap;html=1;fontSize=14;fontColor=light-dark(#000000,#000000);labelBackgroundColor=none;fillColor=light-dark(#FFFFFF,#FFFFFF);" vertex="1" parent="1">
          <mxGeometry x="300" y="113" width="120" height="60" as="geometry" />
        </mxCell>
        <mxCell id="9331QtTUVBZmF3FO_kLh-14" value="&lt;span style=&quot;&quot;&gt;Player&lt;/span&gt;" style="rounded=1;whiteSpace=wrap;html=1;fontSize=14;fontColor=light-dark(#000000,#000000);labelBackgroundColor=none;fillColor=light-dark(#FFFFFF,#FFFFFF);" vertex="1" parent="1">
          <mxGeometry x="740" y="113" width="120" height="60" as="geometry" />
        </mxCell>
        <mxCell id="9331QtTUVBZmF3FO_kLh-17" value="Typing Engine" style="rounded=1;whiteSpace=wrap;html=1;fontSize=14;fontColor=light-dark(#000000,#000000);labelBackgroundColor=none;fillColor=light-dark(#FFFFFF,#FFFFFF);" vertex="1" parent="1">
          <mxGeometry x="520" y="113" width="120" height="60" as="geometry" />
        </mxCell>
        <mxCell id="9331QtTUVBZmF3FO_kLh-35" value="Select game mode" style="rounded=1;whiteSpace=wrap;html=1;fontSize=14;fontColor=light-dark(#000000,#000000);labelBackgroundColor=none;fillColor=light-dark(#FFFFFF,#FFFFFF);" vertex="1" parent="1">
          <mxGeometry x="350" y="263" width="120" height="60" as="geometry" />
        </mxCell>
        <mxCell id="9331QtTUVBZmF3FO_kLh-22" value="Main Menu" style="rounded=1;whiteSpace=wrap;html=1;fontSize=14;fontColor=light-dark(#000000,#000000);labelBackgroundColor=none;fillColor=light-dark(#FFFFFF,#FFFFFF);" vertex="1" parent="1">
          <mxGeometry x="350" y="193" width="120" height="60" as="geometry" />
        </mxCell>
        <mxCell id="9331QtTUVBZmF3FO_kLh-38" value="Start game" style="rounded=1;whiteSpace=wrap;html=1;fontSize=14;fontColor=light-dark(#000000,#000000);labelBackgroundColor=none;fillColor=light-dark(#FFFFFF,#FFFFFF);" vertex="1" parent="1">
          <mxGeometry x="350" y="333" width="120" height="60" as="geometry" />
        </mxCell>
        <mxCell id="9331QtTUVBZmF3FO_kLh-40" value="Load sentences" style="rounded=1;whiteSpace=wrap;html=1;fontSize=14;fontColor=light-dark(#000000,#000000);labelBackgroundColor=none;fillColor=light-dark(#FFFFFF,#FFFFFF);" vertex="1" parent="1">
          <mxGeometry x="350" y="403" width="120" height="60" as="geometry" />
        </mxCell>
        <mxCell id="9331QtTUVBZmF3FO_kLh-42" value="Load UI" style="rounded=1;whiteSpace=wrap;html=1;fontSize=14;fontColor=light-dark(#000000,#000000);labelBackgroundColor=none;fillColor=light-dark(#FFFFFF,#FFFFFF);" vertex="1" parent="1">
          <mxGeometry x="350" y="473" width="120" height="60" as="geometry" />
        </mxCell>
        <mxCell id="9331QtTUVBZmF3FO_kLh-44" value="End game" style="rounded=1;whiteSpace=wrap;html=1;fontSize=14;fontColor=light-dark(#000000,#000000);labelBackgroundColor=none;fillColor=light-dark(#FFFFFF,#FFFFFF);" vertex="1" parent="1">
          <mxGeometry x="350" y="543" width="120" height="60" as="geometry" />
        </mxCell>
        <mxCell id="9331QtTUVBZmF3FO_kLh-46" value="Reset game" style="rounded=1;whiteSpace=wrap;html=1;fontSize=14;fontColor=light-dark(#000000,#000000);labelBackgroundColor=none;fillColor=light-dark(#FFFFFF,#FFFFFF);" vertex="1" parent="1">
          <mxGeometry x="350" y="613" width="120" height="60" as="geometry" />
        </mxCell>
        <mxCell id="9331QtTUVBZmF3FO_kLh-48" value="Save performance stats" style="rounded=1;whiteSpace=wrap;html=1;fontSize=14;fontColor=light-dark(#000000,#000000);labelBackgroundColor=none;fillColor=light-dark(#FFFFFF,#FFFFFF);" vertex="1" parent="1">
          <mxGeometry x="350" y="683" width="120" height="60" as="geometry" />
        </mxCell>
        <mxCell id="9331QtTUVBZmF3FO_kLh-50" value="Display stats screen" style="whiteSpace=wrap;html=1;fontSize=14;fillColor=light-dark(#FFFFFF,#FFFFFF);fontColor=light-dark(#000000,#000000);rounded=1;labelBackgroundColor=none;" vertex="1" parent="1">
          <mxGeometry x="350" y="753" width="120" height="60" as="geometry" />
        </mxCell>
        <mxCell id="9331QtTUVBZmF3FO_kLh-53" value="" style="endArrow=classic;html=1;rounded=0;entryX=0;entryY=0.5;entryDx=0;entryDy=0;" edge="1" parent="1" target="9331QtTUVBZmF3FO_kLh-48">
          <mxGeometry width="50" height="50" relative="1" as="geometry">
            <mxPoint x="330" y="713" as="sourcePoint" />
            <mxPoint x="660" y="593" as="targetPoint" />
          </mxGeometry>
        </mxCell>
        <mxCell id="9331QtTUVBZmF3FO_kLh-54" value="" style="endArrow=classic;html=1;rounded=0;entryX=0;entryY=0.5;entryDx=0;entryDy=0;" edge="1" parent="1" target="9331QtTUVBZmF3FO_kLh-46">
          <mxGeometry width="50" height="50" relative="1" as="geometry">
            <mxPoint x="330" y="643" as="sourcePoint" />
            <mxPoint x="660" y="493" as="targetPoint" />
          </mxGeometry>
        </mxCell>
        <mxCell id="9331QtTUVBZmF3FO_kLh-55" value="" style="endArrow=classic;html=1;rounded=0;entryX=0;entryY=0.5;entryDx=0;entryDy=0;" edge="1" parent="1" target="9331QtTUVBZmF3FO_kLh-44">
          <mxGeometry width="50" height="50" relative="1" as="geometry">
            <mxPoint x="330" y="573" as="sourcePoint" />
            <mxPoint x="660" y="463" as="targetPoint" />
          </mxGeometry>
        </mxCell>
        <mxCell id="9331QtTUVBZmF3FO_kLh-57" value="" style="endArrow=classic;html=1;rounded=0;entryX=0;entryY=0.5;entryDx=0;entryDy=0;" edge="1" parent="1" target="9331QtTUVBZmF3FO_kLh-50">
          <mxGeometry width="50" height="50" relative="1" as="geometry">
            <mxPoint x="330" y="783" as="sourcePoint" />
            <mxPoint x="660" y="463" as="targetPoint" />
          </mxGeometry>
        </mxCell>
        <mxCell id="9331QtTUVBZmF3FO_kLh-58" value="" style="endArrow=none;html=1;rounded=0;entryX=0.25;entryY=1;entryDx=0;entryDy=0;" edge="1" parent="1" target="9331QtTUVBZmF3FO_kLh-12">
          <mxGeometry width="50" height="50" relative="1" as="geometry">
            <mxPoint x="330" y="783" as="sourcePoint" />
            <mxPoint x="660" y="473" as="targetPoint" />
          </mxGeometry>
        </mxCell>
        <mxCell id="9331QtTUVBZmF3FO_kLh-59" value="" style="endArrow=classic;html=1;rounded=0;entryX=0;entryY=0.5;entryDx=0;entryDy=0;" edge="1" parent="1" target="9331QtTUVBZmF3FO_kLh-42">
          <mxGeometry width="50" height="50" relative="1" as="geometry">
            <mxPoint x="330" y="503" as="sourcePoint" />
            <mxPoint x="660" y="403" as="targetPoint" />
          </mxGeometry>
        </mxCell>
        <mxCell id="9331QtTUVBZmF3FO_kLh-60" value="" style="endArrow=classic;html=1;rounded=0;entryX=0;entryY=0.5;entryDx=0;entryDy=0;" edge="1" parent="1" target="9331QtTUVBZmF3FO_kLh-40">
          <mxGeometry width="50" height="50" relative="1" as="geometry">
            <mxPoint x="330" y="433" as="sourcePoint" />
            <mxPoint x="660" y="403" as="targetPoint" />
          </mxGeometry>
        </mxCell>
        <mxCell id="9331QtTUVBZmF3FO_kLh-61" value="" style="endArrow=classic;html=1;rounded=0;entryX=0;entryY=0.5;entryDx=0;entryDy=0;" edge="1" parent="1" target="9331QtTUVBZmF3FO_kLh-38">
          <mxGeometry width="50" height="50" relative="1" as="geometry">
            <mxPoint x="330" y="363" as="sourcePoint" />
            <mxPoint x="660" y="403" as="targetPoint" />
          </mxGeometry>
        </mxCell>
        <mxCell id="9331QtTUVBZmF3FO_kLh-62" value="" style="endArrow=classic;html=1;rounded=0;entryX=0;entryY=0.5;entryDx=0;entryDy=0;" edge="1" parent="1" target="9331QtTUVBZmF3FO_kLh-35">
          <mxGeometry width="50" height="50" relative="1" as="geometry">
            <mxPoint x="330" y="293" as="sourcePoint" />
            <mxPoint x="660" y="403" as="targetPoint" />
          </mxGeometry>
        </mxCell>
        <mxCell id="9331QtTUVBZmF3FO_kLh-63" value="" style="endArrow=classic;html=1;rounded=0;entryX=0;entryY=0.5;entryDx=0;entryDy=0;" edge="1" parent="1" target="9331QtTUVBZmF3FO_kLh-22">
          <mxGeometry width="50" height="50" relative="1" as="geometry">
            <mxPoint x="330" y="223" as="sourcePoint" />
            <mxPoint x="660" y="403" as="targetPoint" />
          </mxGeometry>
        </mxCell>
        <mxCell id="9331QtTUVBZmF3FO_kLh-65" value="" style="endArrow=none;html=1;rounded=0;entryX=0.25;entryY=1;entryDx=0;entryDy=0;" edge="1" parent="1" target="9331QtTUVBZmF3FO_kLh-17">
          <mxGeometry width="50" height="50" relative="1" as="geometry">
            <mxPoint x="550" y="783" as="sourcePoint" />
            <mxPoint x="660" y="413" as="targetPoint" />
          </mxGeometry>
        </mxCell>
        <mxCell id="9331QtTUVBZmF3FO_kLh-74" value="Track Typed Input" style="rounded=1;whiteSpace=wrap;html=1;fontSize=14;fontColor=light-dark(#000000,#000000);labelBackgroundColor=none;fillColor=light-dark(#FFFFFF,#FFFFFF);" vertex="1" parent="1">
          <mxGeometry x="570" y="263" width="120" height="60" as="geometry" />
        </mxCell>
        <mxCell id="9331QtTUVBZmF3FO_kLh-75" value="&lt;div&gt;Display Sentence&lt;/div&gt;" style="rounded=1;whiteSpace=wrap;html=1;fontSize=14;fontColor=light-dark(#000000,#000000);labelBackgroundColor=none;fillColor=light-dark(#FFFFFF,#FFFFFF);" vertex="1" parent="1">
          <mxGeometry x="570" y="193" width="120" height="60" as="geometry" />
        </mxCell>
        <mxCell id="9331QtTUVBZmF3FO_kLh-76" value="Compare Characters" style="rounded=1;whiteSpace=wrap;html=1;fontSize=14;fontColor=light-dark(#000000,#000000);labelBackgroundColor=none;fillColor=light-dark(#FFFFFF,#FFFFFF);" vertex="1" parent="1">
          <mxGeometry x="570" y="333" width="120" height="60" as="geometry" />
        </mxCell>
        <mxCell id="9331QtTUVBZmF3FO_kLh-77" value="Highlight Errors" style="rounded=1;whiteSpace=wrap;html=1;fontSize=14;fontColor=light-dark(#000000,#000000);labelBackgroundColor=none;fillColor=light-dark(#FFFFFF,#FFFFFF);" vertex="1" parent="1">
          <mxGeometry x="570" y="403" width="120" height="60" as="geometry" />
        </mxCell>
        <mxCell id="9331QtTUVBZmF3FO_kLh-78" value="Start Timer" style="rounded=1;whiteSpace=wrap;html=1;fontSize=14;fontColor=light-dark(#000000,#000000);labelBackgroundColor=none;fillColor=light-dark(#FFFFFF,#FFFFFF);" vertex="1" parent="1">
          <mxGeometry x="570" y="473" width="120" height="60" as="geometry" />
        </mxCell>
        <mxCell id="9331QtTUVBZmF3FO_kLh-79" value="Calculate WPM" style="rounded=1;whiteSpace=wrap;html=1;fontSize=14;fontColor=light-dark(#000000,#000000);labelBackgroundColor=none;fillColor=light-dark(#FFFFFF,#FFFFFF);" vertex="1" parent="1">
          <mxGeometry x="570" y="543" width="120" height="60" as="geometry" />
        </mxCell>
        <mxCell id="9331QtTUVBZmF3FO_kLh-80" value="Calculate Accuracy" style="rounded=1;whiteSpace=wrap;html=1;fontSize=14;fontColor=light-dark(#000000,#000000);labelBackgroundColor=none;fillColor=light-dark(#FFFFFF,#FFFFFF);" vertex="1" parent="1">
          <mxGeometry x="570" y="613" width="120" height="60" as="geometry" />
        </mxCell>
        <mxCell id="9331QtTUVBZmF3FO_kLh-81" value="Detect Completion" style="rounded=1;whiteSpace=wrap;html=1;fontSize=14;fontColor=light-dark(#000000,#000000);labelBackgroundColor=none;fillColor=light-dark(#FFFFFF,#FFFFFF);" vertex="1" parent="1">
          <mxGeometry x="570" y="683" width="120" height="60" as="geometry" />
        </mxCell>
        <mxCell id="9331QtTUVBZmF3FO_kLh-82" value="Load Next Sentence" style="whiteSpace=wrap;html=1;fontSize=14;fillColor=light-dark(#FFFFFF,#FFFFFF);fontColor=light-dark(#000000,#000000);rounded=1;labelBackgroundColor=none;" vertex="1" parent="1">
          <mxGeometry x="570" y="753" width="120" height="60" as="geometry" />
        </mxCell>
        <mxCell id="9331QtTUVBZmF3FO_kLh-83" value="" style="endArrow=classic;html=1;rounded=0;entryX=0;entryY=0.5;entryDx=0;entryDy=0;" edge="1" parent="1" target="9331QtTUVBZmF3FO_kLh-81">
          <mxGeometry width="50" height="50" relative="1" as="geometry">
            <mxPoint x="550" y="713" as="sourcePoint" />
            <mxPoint x="880" y="583" as="targetPoint" />
          </mxGeometry>
        </mxCell>
        <mxCell id="9331QtTUVBZmF3FO_kLh-84" value="" style="endArrow=classic;html=1;rounded=0;entryX=0;entryY=0.5;entryDx=0;entryDy=0;" edge="1" parent="1" target="9331QtTUVBZmF3FO_kLh-80">
          <mxGeometry width="50" height="50" relative="1" as="geometry">
            <mxPoint x="550" y="643" as="sourcePoint" />
            <mxPoint x="880" y="483" as="targetPoint" />
          </mxGeometry>
        </mxCell>
        <mxCell id="9331QtTUVBZmF3FO_kLh-85" value="" style="endArrow=classic;html=1;rounded=0;entryX=0;entryY=0.5;entryDx=0;entryDy=0;" edge="1" parent="1" target="9331QtTUVBZmF3FO_kLh-79">
          <mxGeometry width="50" height="50" relative="1" as="geometry">
            <mxPoint x="550" y="573" as="sourcePoint" />
            <mxPoint x="880" y="453" as="targetPoint" />
          </mxGeometry>
        </mxCell>
        <mxCell id="9331QtTUVBZmF3FO_kLh-86" value="" style="endArrow=classic;html=1;rounded=0;entryX=0;entryY=0.5;entryDx=0;entryDy=0;" edge="1" parent="1" target="9331QtTUVBZmF3FO_kLh-82">
          <mxGeometry width="50" height="50" relative="1" as="geometry">
            <mxPoint x="550" y="783" as="sourcePoint" />
            <mxPoint x="880" y="453" as="targetPoint" />
          </mxGeometry>
        </mxCell>
        <mxCell id="9331QtTUVBZmF3FO_kLh-87" value="" style="endArrow=classic;html=1;rounded=0;entryX=0;entryY=0.5;entryDx=0;entryDy=0;" edge="1" parent="1" target="9331QtTUVBZmF3FO_kLh-78">
          <mxGeometry width="50" height="50" relative="1" as="geometry">
            <mxPoint x="550" y="503" as="sourcePoint" />
            <mxPoint x="880" y="393" as="targetPoint" />
          </mxGeometry>
        </mxCell>
        <mxCell id="9331QtTUVBZmF3FO_kLh-88" value="" style="endArrow=classic;html=1;rounded=0;entryX=0;entryY=0.5;entryDx=0;entryDy=0;" edge="1" parent="1" target="9331QtTUVBZmF3FO_kLh-77">
          <mxGeometry width="50" height="50" relative="1" as="geometry">
            <mxPoint x="550" y="433" as="sourcePoint" />
            <mxPoint x="880" y="393" as="targetPoint" />
          </mxGeometry>
        </mxCell>
        <mxCell id="9331QtTUVBZmF3FO_kLh-89" value="" style="endArrow=classic;html=1;rounded=0;entryX=0;entryY=0.5;entryDx=0;entryDy=0;" edge="1" parent="1" target="9331QtTUVBZmF3FO_kLh-76">
          <mxGeometry width="50" height="50" relative="1" as="geometry">
            <mxPoint x="550" y="363" as="sourcePoint" />
            <mxPoint x="880" y="393" as="targetPoint" />
          </mxGeometry>
        </mxCell>
        <mxCell id="9331QtTUVBZmF3FO_kLh-90" value="" style="endArrow=classic;html=1;rounded=0;entryX=0;entryY=0.5;entryDx=0;entryDy=0;" edge="1" parent="1" target="9331QtTUVBZmF3FO_kLh-74">
          <mxGeometry width="50" height="50" relative="1" as="geometry">
            <mxPoint x="550" y="293" as="sourcePoint" />
            <mxPoint x="880" y="393" as="targetPoint" />
          </mxGeometry>
        </mxCell>
        <mxCell id="9331QtTUVBZmF3FO_kLh-91" value="" style="endArrow=classic;html=1;rounded=0;entryX=0;entryY=0.5;entryDx=0;entryDy=0;" edge="1" parent="1" target="9331QtTUVBZmF3FO_kLh-75">
          <mxGeometry width="50" height="50" relative="1" as="geometry">
            <mxPoint x="550" y="223" as="sourcePoint" />
            <mxPoint x="880" y="393" as="targetPoint" />
          </mxGeometry>
        </mxCell>
        <mxCell id="9331QtTUVBZmF3FO_kLh-92" value="" style="endArrow=none;html=1;rounded=0;entryX=0.25;entryY=1;entryDx=0;entryDy=0;" edge="1" parent="1" target="9331QtTUVBZmF3FO_kLh-14">
          <mxGeometry width="50" height="50" relative="1" as="geometry">
            <mxPoint x="770" y="433" as="sourcePoint" />
            <mxPoint x="770" y="176" as="targetPoint" />
          </mxGeometry>
        </mxCell>
        <mxCell id="9331QtTUVBZmF3FO_kLh-93" value="Keyboard Input" style="rounded=1;whiteSpace=wrap;html=1;fontSize=14;fontColor=light-dark(#000000,#000000);labelBackgroundColor=none;fillColor=light-dark(#FFFFFF,#FFFFFF);" vertex="1" parent="1">
          <mxGeometry x="790" y="263" width="120" height="60" as="geometry" />
        </mxCell>
        <mxCell id="9331QtTUVBZmF3FO_kLh-94" value="Mouse Input" style="rounded=1;whiteSpace=wrap;html=1;fontSize=14;fontColor=light-dark(#000000,#000000);labelBackgroundColor=none;fillColor=light-dark(#FFFFFF,#FFFFFF);" vertex="1" parent="1">
          <mxGeometry x="790" y="193" width="120" height="60" as="geometry" />
        </mxCell>
        <mxCell id="9331QtTUVBZmF3FO_kLh-95" value="Pause/Resume Game" style="rounded=1;whiteSpace=wrap;html=1;fontSize=14;fontColor=light-dark(#000000,#000000);labelBackgroundColor=none;fillColor=light-dark(#FFFFFF,#FFFFFF);" vertex="1" parent="1">
          <mxGeometry x="790" y="333" width="120" height="60" as="geometry" />
        </mxCell>
        <mxCell id="9331QtTUVBZmF3FO_kLh-96" value="Return to Menu" style="rounded=1;whiteSpace=wrap;html=1;fontSize=14;fontColor=light-dark(#000000,#000000);labelBackgroundColor=none;fillColor=light-dark(#FFFFFF,#FFFFFF);" vertex="1" parent="1">
          <mxGeometry x="790" y="403" width="120" height="60" as="geometry" />
        </mxCell>
        <mxCell id="9331QtTUVBZmF3FO_kLh-101" value="" style="endArrow=classic;html=1;rounded=0;entryX=0;entryY=0.5;entryDx=0;entryDy=0;" edge="1" parent="1" target="9331QtTUVBZmF3FO_kLh-94">
          <mxGeometry width="50" height="50" relative="1" as="geometry">
            <mxPoint x="770" y="223" as="sourcePoint" />
            <mxPoint x="1100" y="393" as="targetPoint" />
          </mxGeometry>
        </mxCell>
        <mxCell id="9331QtTUVBZmF3FO_kLh-102" value="" style="endArrow=classic;html=1;rounded=0;entryX=0;entryY=0.5;entryDx=0;entryDy=0;" edge="1" parent="1" target="9331QtTUVBZmF3FO_kLh-93">
          <mxGeometry width="50" height="50" relative="1" as="geometry">
            <mxPoint x="770" y="293" as="sourcePoint" />
            <mxPoint x="800" y="273" as="targetPoint" />
          </mxGeometry>
        </mxCell>
        <mxCell id="9331QtTUVBZmF3FO_kLh-103" value="" style="endArrow=classic;html=1;rounded=0;entryX=0;entryY=0.5;entryDx=0;entryDy=0;" edge="1" parent="1" target="9331QtTUVBZmF3FO_kLh-95">
          <mxGeometry width="50" height="50" relative="1" as="geometry">
            <mxPoint x="770" y="363" as="sourcePoint" />
            <mxPoint x="810" y="263" as="targetPoint" />
          </mxGeometry>
        </mxCell>
        <mxCell id="9331QtTUVBZmF3FO_kLh-104" value="" style="endArrow=classic;html=1;rounded=0;entryX=0;entryY=0.5;entryDx=0;entryDy=0;" edge="1" parent="1" target="9331QtTUVBZmF3FO_kLh-96">
          <mxGeometry width="50" height="50" relative="1" as="geometry">
            <mxPoint x="770" y="433" as="sourcePoint" />
            <mxPoint x="810" y="383" as="targetPoint" />
          </mxGeometry>
        </mxCell>
      </root>
    </mxGraphModel>
  </diagram>
</mxfile>
